<svg xmlns="http://www.w3.org/2000/svg" width="512" height="512" viewBox="0 0 512 512" version="1.1">
    <style>
        /* Smooth rotation animation */
        @keyframes secret-rotate {
            0% { transform: rotate(0deg); }
            100% { transform: rotate(360deg); }
        }
        .secret-logo {
            animation: secret-rotate 12s linear infinite;
            transform-origin: center;
        }
    </style>
    
    <!-- Main logo container with animation -->
    <g class="secret-logo">
        <path d="M 247 76.361 C 244.525 77.036, 237.100 80.757, 230.500 84.631 C 220.282 90.628, 168.502 121.238, 164 123.943 C 163.175 124.438, 151.025 131.703, 137 140.085 C 108.244 157.273, 90.323 168.099, 84.662 171.702 C 78.028 175.925, 76.763 180.431, 77.162 198.419 C 77.609 218.580, 76.760 217.404, 101.414 231.964 C 111.911 238.163, 122.075 244.246, 124 245.483 C 125.925 246.719, 130.313 249.399, 133.750 251.438 C 137.187 253.477, 140 255.526, 140 255.991 C 140 256.457, 133.363 260.773, 125.250 265.581 C 85.477 289.157, 81.888 291.475, 79.686 295 C 77.728 298.135, 77.467 300.114, 77.182 314 C 76.879 328.733, 76.981 329.723, 79.251 334 C 82.021 339.223, 76.150 335.526, 171 391.766 C 181.725 398.125, 192.075 404.318, 194 405.528 C 195.925 406.738, 207.496 413.644, 219.714 420.875 C 244.085 435.300, 250.197 437.706, 259.513 436.542 C 266.552 435.662, 272.633 432.626, 299 416.825 C 319.954 404.268, 332.124 397.006, 391 361.929 C 403.375 354.557, 414.225 348.069, 415.111 347.512 C 415.997 346.955, 418.922 345.279, 421.611 343.786 C 433.572 337.144, 434.023 336.119, 434.191 315.185 C 434.322 298.820, 434.230 297.959, 431.997 294.701 C 429.373 290.872, 430.424 291.562, 396.705 271.512 C 383.068 263.404, 372.078 256.259, 372.283 255.635 C 372.650 254.518, 383.390 247.899, 414.037 229.904 C 434.956 217.620, 434.366 218.593, 434.190 196.718 C 434.040 177.903, 433.475 175.925, 427.021 171.590 C 423.948 169.525, 391.568 150.091, 357.500 129.862 C 307.623 100.247, 285.286 86.971, 278.075 82.657 C 265.745 75.280, 257.269 73.563, 247 76.361 M 250 113.636 C 249.175 113.957, 241.851 118.108, 233.725 122.860 C 225.599 127.612, 218.174 131.952, 217.225 132.505 C 216.276 133.057, 209.540 137.107, 202.257 141.505 C 194.973 145.902, 188.202 149.950, 187.210 150.500 C 184.491 152.008, 156.151 168.827, 132.500 182.970 C 120.950 189.876, 111.500 196.046, 111.500 196.682 C 111.500 197.816, 118.288 202.013, 170.625 233.234 C 201.730 251.790, 202.691 252.309, 203.514 250.978 C 203.859 250.420, 204.222 243.748, 204.320 236.152 C 204.494 222.780, 204.587 222.227, 207.230 218.764 C 209.602 215.655, 229.976 202.556, 241.538 196.705 C 249.159 192.849, 262.862 192.837, 270.383 196.679 C 274.480 198.771, 291.546 208.640, 296 211.492 C 313.409 222.639, 364.403 252.059, 365.551 251.619 C 366.718 251.171, 367 248.421, 367 237.499 C 367 217.608, 366.793 217.920, 388.500 205.036 C 395.100 201.118, 400.500 197.376, 400.500 196.721 C 400.500 195.697, 377.936 181.977, 307.691 140.289 C 299.546 135.455, 288.971 129.163, 284.191 126.306 C 263.813 114.127, 262.744 113.617, 257 113.328 C 253.975 113.176, 250.825 113.314, 250 113.636 M 251.074 231.729 C 248.365 232.238, 210 254.857, 210 255.945 C 210 257.222, 246.091 278.213, 250.971 279.773 C 256.846 281.652, 262.179 280.487, 269.948 275.627 C 272.697 273.907, 281.034 268.922, 288.473 264.549 C 295.913 260.176, 302 256.286, 302 255.906 C 302 254.851, 266.107 233.663, 262.056 232.327 C 258.376 231.113, 255.252 230.943, 251.074 231.729 M 144.853 274.750 C 144.368 294.328, 144.509 294.105, 125.420 305.531 C 117.437 310.309, 111.066 314.698, 111.261 315.284 C 111.457 315.871, 114.740 318.216, 118.558 320.496 C 122.376 322.777, 138.775 332.546, 155 342.206 C 171.225 351.866, 188.900 362.409, 194.278 365.635 C 199.656 368.861, 204.838 371.950, 205.792 372.500 C 206.747 373.050, 209.097 374.450, 211.014 375.610 C 212.931 376.771, 222.365 382.396, 231.977 388.110 C 249.368 398.449, 249.487 398.500, 255.977 398.500 C 263.405 398.500, 254.142 403.597, 338.500 353.088 C 361.050 339.586, 380.400 328.040, 381.500 327.430 C 390.173 322.619, 401 315.775, 401 315.103 C 401 314.152, 401.704 314.585, 349.711 283.562 C 317.064 264.083, 309.659 260.038, 308.461 261.033 C 307.313 261.986, 307 265.118, 307 275.672 C 307 285.820, 306.623 289.828, 305.457 292.084 C 303.836 295.217, 296.577 300.251, 279.494 310.087 C 267.616 316.927, 262.364 318.438, 252.844 317.757 C 244.400 317.153, 242.085 316.021, 210 296.811 C 162.726 268.508, 148.091 260, 146.679 260 C 145.480 260, 145.152 262.649, 144.853 274.750" fill="#FF3030" fill-rule="evenodd"/>
    </g>
</svg>